<svg width="20px" height="20px" viewBox="0 0 200 200" version="1.1" xmlns="http://www.w3.org/2000/svg">
<g id="#00000033">
<path fill="#000000" stroke="#000000" stroke-width="0.09375" opacity="0.20" d=" M 97.10 0.00 L 102.79 0.00 C 104.18 1.38 105.45 2.91 106.35 4.66 C 115.33 23.70 124.12 42.84 133.22 61.82 C 153.60 65.52 174.20 68.06 194.63 71.50 C 196.87 71.88 198.50 73.60 200.00 75.17 L 200.00 79.76 C 191.90 89.34 182.50 97.76 173.97 106.96 C 167.44 114.18 160.22 120.75 153.72 127.99 C 156.48 146.72 159.79 165.36 162.74 184.06 C 163.23 187.71 164.30 191.34 164.08 195.05 C 163.83 197.42 161.65 198.76 159.88 200.00 L 155.71 200.00 C 153.31 198.46 150.91 196.91 148.38 195.60 C 132.21 186.86 116.29 177.66 100.07 169.02 C 83.53 177.66 67.42 187.13 50.97 195.94 C 48.67 197.13 46.51 198.57 44.35 200.00 L 40.13 200.00 C 38.39 198.75 36.16 197.46 35.94 195.08 C 35.71 190.64 37.05 186.31 37.63 181.94 C 40.42 163.95 43.66 146.03 46.27 128.01 C 35.22 116.33 23.93 104.85 12.72 93.30 C 8.48 88.82 3.83 84.69 0.00 79.83 L 0.00 75.18 C 1.61 73.38 3.52 71.60 6.03 71.32 C 26.27 68.12 46.61 65.41 66.78 61.84 C 75.75 43.06 84.52 24.18 93.31 5.31 C 94.25 3.33 95.66 1.63 97.10 0.00 Z" />
</g>
</svg>
