<svg width="20px" height="20px" viewBox="0 0 200 200" version="1.1" xmlns="http://www.w3.org/2000/svg">
<g id="#ffd700ff">
<path fill="#ffd700" stroke="#ffd700" stroke-width="0.09375" opacity="1.00" d=" M 98.57 0.00 L 101.19 0.00 C 103.27 0.48 105.16 1.76 105.94 3.81 C 115.05 23.22 124.13 42.64 133.24 62.04 C 153.79 65.23 174.36 68.28 194.90 71.52 C 197.49 71.85 199.27 74.04 200.00 76.41 L 200.00 78.87 C 199.15 81.73 196.69 83.60 194.74 85.70 C 181.01 99.77 167.30 113.84 153.60 127.94 C 157.09 149.63 160.74 171.31 164.14 193.01 C 164.74 196.25 162.25 199.07 159.32 200.00 L 156.80 200.00 C 155.48 199.47 154.20 198.86 152.95 198.19 C 135.31 188.39 117.66 178.63 100.00 168.86 C 81.09 179.18 62.41 189.93 43.37 200.00 L 40.93 200.00 C 37.85 199.25 35.26 196.29 35.86 193.01 C 39.26 171.29 42.93 149.61 46.40 127.91 C 32.69 113.84 18.99 99.75 5.27 85.69 C 3.31 83.61 0.88 81.73 0.00 78.90 L 0.00 76.61 C 0.59 74.14 2.44 71.88 5.06 71.52 C 25.62 68.27 46.21 65.23 66.77 62.03 C 75.87 42.61 84.97 23.19 94.07 3.78 C 94.83 1.81 96.62 0.61 98.57 0.00 Z" />
</g>
</svg>
